# xmcd
#
# Track frame offsets:
#	150
#	24755
#	42187
#	66135
#	84487
#	119460
#	142715
#	178910
#	199072
#	213645
#	245765
#	268925
#	286870
#	304392
#
# Disc length: 4275 seconds
#
# Revision: 2
# Processed by: cddbd v1.5.2PL0 Copyright (c) Steve Scherf et al.
# Submitted via: audiograbber 1.83.01
#
DISCID=cf10b10e
DTITLE=Del Rae - Bridge To My Dreams
DYEAR=2001
DGENRE=Blues
TTITLE0=Night Life
TTITLE1=House of the Rising Sun
TTITLE2=Fly Me to the Moon
TTITLE3=Where or When
TTITLE4=Inferno of the Last Soul
TTITLE5=She Believes in Me
TTITLE6=Yesterday When I Was Young
TTITLE7=Equinox
TTITLE8=Messing Up
TTITLE9=Birth of the Blues
TTITLE10=At Last
TTITLE11=Wild Woman
TTITLE12=Polka Dots and Moonbeams
TTITLE13=I Love Being Here With You
EXTD=
EXTT0=
EXTT1=
EXTT2=
EXTT3=
EXTT4=
EXTT5=
EXTT6=
EXTT7=
EXTT8=
EXTT9=
EXTT10=
EXTT11=
EXTT12=
EXTT13=
PLAYORDER=
